<svg enable-background="new 0 0 295.996 295.996" viewBox="0 0 295.996 295.996" xmlns="http://www.w3.org/2000/svg"><path d="m270.996 123.998c0-11.334-1.363-22.348-3.907-32.9-7.269-15.152-17.35-28.708-29.558-39.996-22.391-13.376-48.766-20.666-76.772-19.645-37.566 1.369-71.131 17.422-95.386 42.433l45.716-19.798 6.359 14.682-50.671 21.944-5.418-12.51c-23.196 26.016-36.774 60.674-35.404 98.255.413 11.304 2.17 22.239 5.087 32.673 6.303 12.01 14.397 22.938 23.934 32.42 21.892 14.189 47.99 22.44 76.023 22.44 77.317 0 139.997-62.68 139.997-139.998zm-86.092-69.906 50.672 21.944-6.359 14.682-50.672-21.944zm28.593 61.906c0 8.836-7.164 16-16 16s-16-7.164-16-16 7.164-16 16-16 16 7.164 16 16zm-115-16c8.836 0 16 7.164 16 16s-7.164 16-16 16-16-7.164-16-16 7.164-16 16-16zm-20.113 109.51-14.648-6.438c13.872-31.566 45.052-53.112 79.435-54.892 34.606-1.798 67.991 16.555 85.014 46.744 1.486 2.636 2.857 5.377 4.075 8.148l-14.648 6.436c-1.005-2.286-2.136-4.548-3.363-6.724-14.066-24.946-41.666-40.108-70.25-38.626-28.4 1.471-54.154 19.272-65.615 45.352z" fill="#ffce00"/><path d="m267.089 91.098c2.544 10.553 3.907 21.566 3.907 32.9 0 77.318-62.68 139.998-139.998 139.998-28.032 0-54.131-8.251-76.023-22.44 23.88 23.744 56.766 38.44 93.023 38.44 72.784 0 131.998-59.214 131.998-131.998 0-20.362-4.638-39.661-12.907-56.9z" fill="#ffb100"/><path d="m61.359 78.208-.941-2.172 4.956-2.146c24.255-25.011 57.819-41.063 95.386-42.433 28.006-1.021 54.381 6.268 76.772 19.645-23.547-21.774-55.011-35.102-89.534-35.102-72.784 0-131.998 59.214-131.998 131.998 0 22.049 5.442 42.849 15.042 61.138-2.917-10.434-4.674-21.369-5.087-32.673-1.37-37.581 12.208-72.239 35.404-98.255z" fill="#ffe454"/><path d="m147.998 0c-81.606 0-147.998 66.392-147.998 147.998s66.392 147.998 147.998 147.998 147.998-66.392 147.998-147.998-66.391-147.998-147.998-147.998zm0 279.996c-36.257 0-69.143-14.696-93.023-38.44-9.536-9.482-17.631-20.41-23.934-32.42-9.599-18.289-15.041-39.089-15.041-61.138 0-72.784 59.214-131.998 131.998-131.998 34.523 0 65.987 13.328 89.533 35.102 12.208 11.288 22.289 24.844 29.558 39.996 8.27 17.239 12.907 36.538 12.907 56.9 0 72.784-59.214 131.998-131.998 131.998zm-55.866-3.602c.24.105.48.212.722.316-.242-.105-.482-.211-.722-.316z"/><circle cx="98.497" cy="115.998" r="16"/><circle cx="197.497" cy="115.998" r="16"/><path d="m179.443 64.402h55.218v15.999h-55.218z" transform="matrix(-.9176 -.3974 .3974 -.9176 368.2772 221.1255)"/><path d="m61.359 78.208 5.418 12.51 50.672-21.944-6.359-14.682-45.716 19.798-4.956 2.146z"/><path d="m214.247 202.783c1.228 2.176 2.358 4.438 3.363 6.724l14.648-6.436c-1.218-2.771-2.589-5.513-4.075-8.148-17.022-30.189-50.407-48.542-85.014-46.744-34.383 1.779-65.563 23.325-79.435 54.892l14.648 6.438c11.461-26.08 37.215-43.881 65.613-45.351 28.586-1.483 56.186 13.679 70.252 38.625z"/></svg>