<?xml version="1.0" standalone="no"?>
<!DOCTYPE svg PUBLIC "-//W3C//DTD SVG 20010904//EN"
 "http://www.w3.org/TR/2001/REC-SVG-20010904/DTD/svg10.dtd">
<svg version="1.0" xmlns="http://www.w3.org/2000/svg"
 width="685.000000pt" height="685.000000pt" viewBox="0 0 685.000000 685.000000"
 preserveAspectRatio="xMidYMid meet">
<metadata>
Created by potrace 1.11, written by Peter Selinger 2001-2013
</metadata>
<g transform="translate(0.000000,685.000000) scale(0.100000,-0.100000)"
fill="#000000" stroke="none">
<path d="M3045 6822 c-11 -2 -56 -17 -100 -34 -67 -26 -93 -30 -163 -30 -46 1
-87 4 -92 7 -22 13 -157 17 -181 5 -16 -9 -63 -12 -151 -11 -198 3 -230 -6
-384 -109 -81 -54 -113 -66 -190 -69 -133 -5 -188 -29 -243 -106 -36 -50 -104
-100 -153 -110 -17 -4 -53 -32 -87 -66 -42 -42 -66 -59 -85 -59 -55 0 -95 -26
-117 -77 -28 -65 -90 -146 -132 -172 -66 -40 -72 -66 -74 -336 -2 -269 3 -299
73 -401 81 -119 99 -254 63 -462 -24 -141 -23 -266 3 -365 18 -72 83 -217 121
-270 18 -27 20 -51 24 -395 11 -832 7 -1423 -12 -1642 -2 -25 -7 -85 -10 -135
-3 -49 -8 -110 -10 -135 -2 -25 -7 -79 -10 -120 -3 -41 -8 -100 -10 -130 -11
-113 -13 -137 -20 -210 -3 -41 -8 -86 -10 -100 -2 -14 -6 -54 -10 -90 -3 -36
-8 -76 -10 -90 -3 -14 -7 -45 -9 -70 -6 -57 -16 -136 -23 -175 -2 -16 -6 -39
-8 -50 -1 -11 -7 -47 -14 -80 -11 -63 -23 -153 -25 -195 -2 -39 22 -138 41
-168 40 -63 111 -110 228 -150 58 -20 264 -76 322 -87 61 -11 200 -35 233 -39
19 -3 46 -7 60 -10 14 -3 70 -10 125 -16 55 -6 122 -13 148 -16 241 -27 691
-36 997 -20 217 12 241 13 275 19 17 3 62 8 100 12 39 3 113 12 165 20 139 21
160 24 240 40 14 3 39 8 55 11 17 2 38 7 47 10 9 3 26 7 37 9 12 2 49 11 84
20 34 9 69 18 77 20 54 12 183 66 226 94 110 73 147 196 112 380 -5 25 -11 57
-13 71 -7 37 -14 72 -20 100 -16 72 -13 173 5 233 33 107 100 168 310 285 317
175 725 455 843 577 36 37 78 97 104 150 30 59 86 227 94 280 1 6 5 20 10 31
4 12 11 41 14 65 4 24 8 47 11 50 19 31 27 687 10 864 -14 152 -16 170 -21
238 -3 38 -7 81 -9 95 -3 15 -8 54 -11 87 -6 62 -13 112 -20 155 -2 14 -7 48
-10 75 -5 51 -11 87 -20 140 -3 17 -8 48 -11 70 -8 60 -42 236 -70 360 -63
281 -150 421 -309 496 -104 49 -118 51 -510 50 -287 -1 -399 4 -455 19 -50 13
-74 62 -74 145 1 111 16 510 20 517 3 4 -3 15 -13 25 -17 16 -17 18 15 49 43
43 44 93 2 156 -35 53 -79 75 -165 83 -72 8 -105 29 -125 82 -21 57 -37 73
-106 103 -64 29 -78 48 -88 120 -6 42 -64 100 -100 100 -27 0 -57 24 -100 82
-21 28 -37 39 -64 43 -21 3 -57 10 -82 16 -70 17 -73 17 -114 3 -46 -16 -100
-18 -126 -4 -11 6 -53 35 -94 64 -95 68 -164 92 -231 78z m2104 -2072 c25 -6
55 -19 68 -28 46 -32 79 -121 109 -292 3 -14 7 -31 9 -39 3 -7 8 -34 11 -59 3
-25 7 -49 9 -52 2 -4 7 -29 11 -56 3 -27 8 -58 10 -69 10 -50 39 -255 60 -425
8 -67 10 -85 18 -175 3 -38 8 -90 11 -115 16 -151 23 -497 12 -672 -23 -365
-57 -435 -282 -581 -268 -173 -462 -274 -551 -286 -106 -15 -190 53 -225 182
-27 99 -34 352 -33 1207 2 1160 5 1349 22 1385 18 39 71 76 119 82 21 3 39 6
40 7 1 1 123 1 270 0 175 -1 283 -6 312 -14z"/>
</g>
</svg>
